<svg xmlns="http://www.w3.org/2000/svg" height="48" width="48">
    <path d="M39.8 41.95 26.65 28.8Q25.15 30.1 23.15 30.825Q21.15 31.55 18.9 31.55Q13.5 31.55 9.75 27.8Q6 24.05 6 18.75Q6 13.45 9.75 9.7Q13.5 5.95 18.85 5.95Q24.15 5.95 27.875 9.7Q31.6 13.45 31.6 18.75Q31.6 20.9 30.9 22.9Q30.2 24.9 28.8 26.65L42 39.75ZM18.85 28.55Q22.9 28.55 25.75 25.675Q28.6 22.8 28.6 18.75Q28.6 14.7 25.75 11.825Q22.9 8.95 18.85 8.95Q14.75 8.95 11.875 11.825Q9 14.7 9 18.75Q9 22.8 11.875 25.675Q14.75 28.55 18.85 28.55Z" />
</svg>

<svg id="search-icon" class="search-icon" viewBox="0 0 24 24">
    <path d="M15.5 14h-.79l-.28-.27C15.41 12.59 16 11.11 16 9.5 16 5.91 13.09 3 9.5 3S3 5.91 3 9.5 5.91 16 9.5 16c1.61 0 3.09-.59 4.23-1.57l.27.28v.79l5 4.99L20.49 19l-4.99-5zm-6 0C7.01 14 5 11.99 5 9.5S7.01 5 9.5 5 14 7.01 14 9.5 11.99 14 9.5 14z"/>
    <path d="M0 0h24v24H0z" fill="none"/>
</svg>